<svg width="145" height="47" viewBox="0 0 145 47" fill="none" xmlns="http://www.w3.org/2000/svg">
<path id="Vector" d="M9.30709 46.3793C8.93256 46.3793 8.56712 46.3746 8.19554 46.3664C7.42583 46.3565 6.65791 46.2905 5.89808 46.1687C5.18959 46.0483 4.50325 45.8244 3.86171 45.5043C3.22603 45.1868 2.64624 44.7706 2.14455 44.2716C1.63555 43.7784 1.21179 43.2065 0.890047 42.5783C0.564795 41.9461 0.3397 41.2684 0.222604 40.5689C0.0961928 39.8173 0.0278178 39.0573 0.0180689 38.2954C0.0102022 38.0397 0 37.1884 0 37.1884V9.17811C0 9.17811 0.0108168 8.33977 0.0180689 8.09339C0.0274346 7.33277 0.0954404 6.57397 0.221498 5.82353C0.338824 5.12211 0.56411 4.44248 0.889556 3.80819C1.21006 3.18046 1.63142 2.60803 2.13729 2.11307C2.64263 1.61342 3.2243 1.19507 3.86109 0.873263C4.50117 0.554244 5.18622 0.33193 5.89329 0.213769C6.65562 0.090843 7.42622 0.0244127 8.19861 0.0150353L9.3077 0H135.629L136.751 0.0153991C137.516 0.0243691 138.28 0.0902751 139.035 0.212556C139.75 0.332233 140.442 0.556136 141.089 0.876901C142.365 1.5254 143.403 2.55141 144.058 3.8111C144.378 4.44105 144.6 5.11516 144.715 5.81056C144.843 6.56713 144.914 7.33189 144.929 8.09872C144.933 8.44211 144.933 8.81096 144.933 9.17811C144.943 9.63281 144.943 10.0656 144.943 10.502V35.8785C144.943 36.319 144.943 36.7488 144.933 37.1822C144.933 37.5765 144.933 37.9377 144.928 38.3095C144.913 39.0627 144.843 39.8138 144.718 40.5569C144.603 41.2615 144.379 41.9444 144.054 42.5818C143.73 43.2031 143.309 43.7702 142.806 44.262C142.304 44.7637 141.723 45.1824 141.086 45.5018C140.44 45.8244 139.749 46.0491 139.035 46.1685C138.276 46.2909 137.508 46.357 136.738 46.3662C136.37 46.3747 136.002 46.3791 135.635 46.3792L134.302 46.3816L9.30709 46.3793Z" fill="black"/>
</svg>
